<svg xmlns="http://www.w3.org/2000/svg" width="22.4" height="24" viewBox="0 0 22.4 24"><defs><style>.a{fill:#bfbfbf;}</style></defs><path class="a" d="M4.772,22.765a1.182,1.182,0,1,1-2.362,0A11.524,11.524,0,0,1,9.4,12.152,6.886,6.886,0,0,1,6.947,6.845,6.747,6.747,0,0,1,13.657,0a6.728,6.728,0,0,1,6.616,6.85,6.887,6.887,0,0,1-2.457,5.307A11.526,11.526,0,0,1,24.81,22.765a1.182,1.182,0,1,1-2.362,0,8.927,8.927,0,0,0-8.789-8.972,8.946,8.946,0,0,0-8.884,8.972ZM13.656,2.408A4.382,4.382,0,0,0,9.309,6.846a4.3,4.3,0,1,0,8.6,0,4.364,4.364,0,0,0-4.253-4.438Z" transform="translate(-2.41 0.005)"/></svg>