<svg xmlns="http://www.w3.org/2000/svg" width="66.971" height="17.638" viewBox="0 0 66.971 17.638"><defs><style>.a{fill:#23d25b;}</style></defs><path class="a" d="M4.29-4.371,8.428-9.8h4.244L7.433-3.568l5.71,6.933H8.708L4.29-2.345H4.255v5.71H.832V-9.8H4.255v5.431Zm9.657-1.222h3.178V-.809A2.545,2.545,0,0,0,17.466.632a1.408,1.408,0,0,0,1.249.5,1.408,1.408,0,0,0,1.249-.5A2.545,2.545,0,0,0,20.3-.809V-5.593h3.178V-.2q0,3.859-4.767,3.859T13.947-.2Zm14.739,0v1.153h.035A3.236,3.236,0,0,1,31.584-5.89a3.129,3.129,0,0,1,2.55.987,4.15,4.15,0,0,1,.821,2.733V3.365H31.777V-1.586q0-.079-.009-.3a1.738,1.738,0,0,0-.035-.323q-.026-.1-.079-.3a.792.792,0,0,0-.122-.279q-.07-.087-.183-.218a.715.715,0,0,0-.253-.192,2.43,2.43,0,0,0-.332-.114,1.589,1.589,0,0,0-.419-.052q-1.659,0-1.659,2.078V3.365H25.507V-5.593Zm18.2,0V2.492a5.458,5.458,0,0,1-1.318,4.06A5.33,5.33,0,0,1,41.7,7.836a6.99,6.99,0,0,1-2.174-.349,5.1,5.1,0,0,1-1.93-1.153,3.1,3.1,0,0,1-1-1.921h3.562a1.04,1.04,0,0,0,.594.681,2,2,0,0,0,.908.21,1.778,1.778,0,0,0,1.615-.664,3.519,3.519,0,0,0,.428-1.9V2.317A3.9,3.9,0,0,1,40.857,3.54a4.183,4.183,0,0,1-3.178-1.31,4.565,4.565,0,0,1-1.24-3.266,4.925,4.925,0,0,1,1.292-3.431,4.26,4.26,0,0,1,3.3-1.423,3.01,3.01,0,0,1,2.637,1.24H43.7v-.943ZM43.25-2.607A1.908,1.908,0,0,0,41.765-3.2a1.951,1.951,0,0,0-1.493.585,2.024,2.024,0,0,0-.55,1.441,1.985,1.985,0,0,0,.55,1.441,1.983,1.983,0,0,0,1.493.568A1.983,1.983,0,0,0,43.258.265a1.985,1.985,0,0,0,.55-1.441A1.976,1.976,0,0,0,43.25-2.607Zm8.8-2.986v1.467h.035a3.069,3.069,0,0,1,2.9-1.589H55.6V-2.66a2.706,2.706,0,0,0-1.345-.3,1.93,1.93,0,0,0-1.72.707,3.537,3.537,0,0,0-.48,2V3.365H48.873V-5.593Zm8.068,7.736L55.788-5.593h3.667L61.848-1l2.34-4.593H67.8L60.625,7.836H57.063Z" transform="translate(-0.832 9.802)"/></svg>