<svg xmlns="http://www.w3.org/2000/svg" width="18.69" height="9.797" viewBox="0 0 18.69 9.797"><defs><style>.a{fill:#23d05a;}</style></defs><g transform="translate(-2.5 -25.102)"><path class="a" d="M40.877,40.547l1.338-1.554a2.284,2.284,0,1,0,.748,1.692c0-.039-.02-.078-.02-.138Z" transform="translate(-28.836 -10.684)"/><path class="a" d="M20.816,29.568c-.178-.178-4.053-4.466-8.972-4.466s-8.794,4.289-8.972,4.486L2.5,30l.373.433c.178.178,4.053,4.466,8.972,4.466s8.794-4.289,8.972-4.486l.373-.433ZM11.845,33.4a3.4,3.4,0,1,1,3.4-3.4A3.418,3.418,0,0,1,11.845,33.4Zm-3.875-6.04a4.709,4.709,0,0,0,0,5.272A15.283,15.283,0,0,1,4.27,30,15.279,15.279,0,0,1,7.969,27.364Zm7.751,5.272A4.639,4.639,0,0,0,16.527,30a4.733,4.733,0,0,0-.807-2.636A15.3,15.3,0,0,1,19.419,30,15.279,15.279,0,0,1,15.72,32.636Z"/></g></svg>