<svg xmlns="http://www.w3.org/2000/svg" width="24.267" height="24" viewBox="0 0 24.267 24"><defs><style>.a{fill:#bfbfbf;}</style></defs><path class="a" d="M20.132,5.883H19.2v-1.2A4.143,4.143,0,0,0,15.064.55H4.136A4.143,4.143,0,0,0,0,4.686V20.414A4.143,4.143,0,0,0,4.136,24.55h16c.14,0,.276-.008.412-.02a4.132,4.132,0,0,0,3.724-4.116v-10.4a4.143,4.143,0,0,0-4.136-4.136Zm-16,16.268A1.735,1.735,0,0,1,2.4,20.414V4.686A1.735,1.735,0,0,1,4.136,2.951H15.064A1.735,1.735,0,0,1,16.8,4.686V20.414a4.084,4.084,0,0,0,.384,1.736Zm17.731-1.736A1.733,1.733,0,0,1,20.535,22.1,1.728,1.728,0,0,1,19.2,20.415V8.283h.932a1.735,1.735,0,0,1,1.736,1.736Z" transform="translate(0 -0.55)"/><path class="a" d="M19.918,29.945h9.266V32.4H19.918Z" transform="translate(-15.148 -22.829)"/><path class="a" d="M19.918,54.945h9.266V57.4H19.918Z" transform="translate(-15.148 -41.777)"/></svg>