<svg xmlns="http://www.w3.org/2000/svg" width="20.434" height="20.432" viewBox="0 0 20.434 20.432"><defs><style>.a{stroke:#000;stroke-width:0.4px;}</style></defs><path class="a" d="M21.957,12.448a3.115,3.115,0,1,0-4.406-4.405l-3.216,3.216a3.118,3.118,0,0,0,0,4.4,1.067,1.067,0,0,1-1.509,1.509,5.251,5.251,0,0,1,0-7.422l3.216-3.216a5.249,5.249,0,1,1,7.423,7.422l-1.594,1.593a1.067,1.067,0,0,1-1.509-1.51ZM6.535,23.461a5.256,5.256,0,0,0,7.423,0l3.216-3.216a5.246,5.246,0,0,0,0-7.422,1.067,1.067,0,0,0-1.509,1.51,3.114,3.114,0,0,1,0,4.4L12.45,21.953a3.115,3.115,0,0,1-4.406-4.405l1.594-1.593a1.067,1.067,0,0,0-1.509-1.509L6.536,16.039h0a5.255,5.255,0,0,0,0,7.422Z" transform="translate(-4.801 -4.764)"/></svg>