<svg xmlns="http://www.w3.org/2000/svg" width="24" height="24" viewBox="0 0 24 24"><defs><style>.a{fill:#fff;}</style></defs><path class="a" d="M24.975.823l-6.32,3.658L12.3.823a1.251,1.251,0,0,0-1.247,0L4.075,4.832a1.163,1.163,0,0,0-.588,1v5.022a1.152,1.152,0,0,0,.539.97,1.247,1.247,0,0,0,1.138.1,1.148,1.148,0,0,0,.76-1.071V6.494L10.45,3.872v7.451a1.173,1.173,0,0,0,.606,1.015,1.248,1.248,0,0,0,1.212,0,1.157,1.157,0,0,0,.606-1.01V3.855l4.561,2.636V21.238L15.473,20.1h0a1.194,1.194,0,0,0-1.693.558,1.124,1.124,0,0,0,.461,1.449l3.8,2.2a1.254,1.254,0,0,0,1.246,0l6.968-4.037a1.162,1.162,0,0,0,.588-1.005V1.8A1.18,1.18,0,0,0,25.93.672a1.307,1.307,0,0,0-.955.151Zm-.552,17.784L19.861,21.24V6.5l4.561-2.633ZM7.364,24.461a.6.6,0,0,0,.854,0l3.081-3.2a4.949,4.949,0,0,0,1.363-2.609,4.839,4.839,0,0,0-.38-2.9A4.732,4.732,0,0,0,10.6,13.824a4.993,4.993,0,0,0-2.476-.811H7.46a5,5,0,0,0-2.477.811A4.727,4.727,0,0,0,3.3,15.752a4.839,4.839,0,0,0-.38,2.9,4.942,4.942,0,0,0,1.363,2.609Zm.426-8.856A2.284,2.284,0,0,1,9.9,16.96,2.137,2.137,0,0,1,9.4,19.353a2.347,2.347,0,0,1-2.485.476A2.2,2.2,0,0,1,5.509,17.8a2.24,2.24,0,0,1,2.281-2.2Z" transform="translate(-2.844 -0.64)"/></svg>