<svg xmlns="http://www.w3.org/2000/svg" width="16" height="17.138" viewBox="0 0 16 17.138"><defs><style>.a{fill:#ababab;}</style></defs><path class="a" d="M20.11,8.856h-.054a6.356,6.356,0,1,0-12.712,0H7.289A1.592,1.592,0,0,0,5.7,10.445v7.6a1.592,1.592,0,0,0,1.589,1.589H20.11A1.592,1.592,0,0,0,21.7,18.048v-7.6A1.57,1.57,0,0,0,20.11,8.856Zm-5.075,7.765a.475.475,0,0,1-.072.38.443.443,0,0,1-.343.162H12.778A.42.42,0,0,1,12.435,17a.412.412,0,0,1-.072-.38l.6-2.293a1.589,1.589,0,1,1,1.481,0Zm2.853-7.765H9.51a4.189,4.189,0,1,1,8.379,0Z" transform="translate(-5.7 -2.5)"/></svg>