<svg xmlns="http://www.w3.org/2000/svg" width="20" height="20.345" viewBox="0 0 20 20.345"><defs><style>.a{fill-rule:evenodd;}</style></defs><path class="a" d="M10.51,19.984C7.322,16.523,2.776,8.993,8.543,5.872a1.749,1.749,0,0,1,2.239.475,9.459,9.459,0,0,1,1.357,3.46,2.287,2.287,0,0,1-.475,1.967l-1.221,1.153c.2,2.171,4.885,7.26,7.056,7.6l1.289-1.153a2.648,2.648,0,0,1,2.035-.339,10.823,10.823,0,0,1,3.325,1.628A1.719,1.719,0,0,1,24.42,22.9c-3.528,5.563-10.72.543-13.908-2.918Zm8.616-4.614a1,1,0,0,1-1.967.339,2.551,2.551,0,0,0-1.9-2.035,1.012,1.012,0,0,1,.475-1.967,4.594,4.594,0,0,1,3.393,3.663Zm6.649.2a.984.984,0,1,1-1.967.068,9.452,9.452,0,0,0-8.073-8.616.993.993,0,0,1,.272-1.967,11.356,11.356,0,0,1,9.77,10.516Zm-3.257-.068a.993.993,0,0,1-1.967.272,6.737,6.737,0,0,0-5.157-5.5,1.012,1.012,0,0,1,.475-1.967,8.689,8.689,0,0,1,6.649,7.192Z" transform="translate(-5.777 -5.044)"/></svg>